<?xml version="1.0" encoding="UTF-8" standalone="no"?>
<!DOCTYPE svg PUBLIC "-//W3C//DTD SVG 1.1//EN" "http://www.w3.org/Graphics/SVG/1.1/DTD/svg11.dtd">
<svg xmlns="http://www.w3.org/2000/svg" version="1.1" viewBox="0 0 15 14">
<path fill="#bdbcb9" fill-opacity="0.996" d="
  M 8.56 0.00
  L 10.56 0.00
  Q 14.02 0.93 15.00 4.31
  L 15.00 5.81
  Q 12.50 11.82 6.27 9.36
  A 0.66 0.63 -54.8 0 0 5.58 9.49
  L 1.80 13.07
  A 0.63 0.62 46.0 0 1 0.93 13.05
  L 0.64 12.76
  A 0.66 0.65 47.0 0 1 0.67 11.80
  L 4.40 8.55
  A 0.72 0.72 0.0 0 0 4.60 7.75
  Q 2.34 1.76 8.56 0.00
  Z
  M 13.10 5.04
  A 3.64 3.64 0.0 0 0 9.46 1.40
  A 3.64 3.64 0.0 0 0 5.82 5.04
  A 3.64 3.64 0.0 0 0 9.46 8.68
  A 3.64 3.64 0.0 0 0 13.10 5.04
  Z"
/>
</svg>
